  0
SECTION
  2
HEADER
  9
$ACADVER
  1
AC1012
  9
$DWGCODEPAGE
  3
ansi_1252
  9
$INSBASE
 10
0.0
 20
0.0
 30
0.0
  9
$EXTMIN
 10
1.000000000000000E+20
 20
1.000000000000000E+20
 30
1.000000000000000E+20
  9
$EXTMAX
 10
-1.000000000000000E+20
 20
-1.000000000000000E+20
 30
-1.000000000000000E+20
  9
$LIMMIN
 10
0.0
 20
0.0
  9
$LIMMAX
 10
12.0
 20
9.0
  9
$ORTHOMODE
 70
     0
  9
$REGENMODE
 70
     1
  9
$FILLMODE
 70
     1
  9
$QTEXTMODE
 70
     0
  9
$MIRRTEXT
 70
     1
  9
$DRAGMODE
 70
     2
  9
$LTSCALE
 40
1.0
  9
$OSMODE
 70
    37
  9
$ATTMODE
 70
     1
  9
$TEXTSIZE
 40
0.2
  9
$TRACEWID
 40
0.05
  9
$TEXTSTYLE
  7
STANDARD
  9
$CLAYER
  8
0
  9
$CELTYPE
  6
BYLAYER
  9
$CECOLOR
 62
   256
  9
$CELTSCALE
 40
1.0
  9
$DELOBJ
 70
     1
  9
$DISPSILH
 70
     0
  9
$DIMSCALE
 40
1.0
  9
$DIMASZ
 40
0.18
  9
$DIMEXO
 40
0.0625
  9
$DIMDLI
 40
0.38
  9
$DIMRND
 40
0.0
  9
$DIMDLE
 40
0.0
  9
$DIMEXE
 40
0.18
  9
$DIMTP
 40
0.0
  9
$DIMTM
 40
0.0
  9
$DIMTXT
 40
0.18
  9
$DIMCEN
 40
0.09
  9
$DIMTSZ
 40
0.0
  9
$DIMTOL
 70
     0
  9
$DIMLIM
 70
     0
  9
$DIMTIH
 70
     1
  9
$DIMTOH
 70
     1
  9
$DIMSE1
 70
     0
  9
$DIMSE2
 70
     0
  9
$DIMTAD
 70
     0
  9
$DIMZIN
 70
     0
  9
$DIMBLK
  1

  9
$DIMASO
 70
     1
  9
$DIMSHO
 70
     1
  9
$DIMPOST
  1

  9
$DIMAPOST
  1

  9
$DIMALT
 70
     0
  9
$DIMALTD
 70
     2
  9
$DIMALTF
 40
25.4
  9
$DIMLFAC
 40
1.0
  9
$DIMTOFL
 70
     0
  9
$DIMTVP
 40
0.0
  9
$DIMTIX
 70
     0
  9
$DIMSOXD
 70
     0
  9
$DIMSAH
 70
     0
  9
$DIMBLK1
  1

  9
$DIMBLK2
  1

  9
$DIMSTYLE
  2
STANDARD
  9
$DIMCLRD
 70
     0
  9
$DIMCLRE
 70
     0
  9
$DIMCLRT
 70
     0
  9
$DIMTFAC
 40
1.0
  9
$DIMGAP
 40
0.09
  9
$DIMJUST
 70
     0
  9
$DIMSD1
 70
     0
  9
$DIMSD2
 70
     0
  9
$DIMTOLJ
 70
     1
  9
$DIMTZIN
 70
     0
  9
$DIMALTZ
 70
     0
  9
$DIMALTTZ
 70
     0
  9
$DIMFIT
 70
     3
  9
$DIMUPT
 70
     0
  9
$DIMUNIT
 70
     2
  9
$DIMDEC
 70
     4
  9
$DIMTDEC
 70
     4
  9
$DIMALTU
 70
     2
  9
$DIMALTTD
 70
     2
  9
$DIMTXSTY
  7
STANDARD
  9
$DIMAUNIT
 70
     0
  9
$LUNITS
 70
     2
  9
$LUPREC
 70
     4
  9
$SKETCHINC
 40
0.1
  9
$FILLETRAD
 40
0.5
  9
$AUNITS
 70
     0
  9
$AUPREC
 70
     0
  9
$MENU
  1
.
  9
$ELEVATION
 40
0.0
  9
$PELEVATION
 40
0.0
  9
$THICKNESS
 40
0.0
  9
$LIMCHECK
 70
     0
  9
$CHAMFERA
 40
0.5
  9
$CHAMFERB
 40
0.5
  9
$CHAMFERC
 40
1.0
  9
$CHAMFERD
 40
0.0
  9
$SKPOLY
 70
     0
  9
$TDCREATE
 40
2455924.409976296
  9
$TDUPDATE
 40
2455924.409976308
  9
$TDINDWG
 40
0.0000000116
  9
$TDUSRTIMER
 40
0.0000000116
  9
$USRTIMER
 70
     1
  9
$ANGBASE
 50
0.0
  9
$ANGDIR
 70
     0
  9
$PDMODE
 70
     0
  9
$PDSIZE
 40
0.0
  9
$PLINEWID
 40
0.0
  9
$COORDS
 70
     1
  9
$SPLFRAME
 70
     0
  9
$SPLINETYPE
 70
     6
  9
$SPLINESEGS
 70
     8
  9
$ATTDIA
 70
     0
  9
$ATTREQ
 70
     1
  9
$HANDLING
 70
     1
  9
$HANDSEED
  5
3E
  9
$SURFTAB1
 70
     6
  9
$SURFTAB2
 70
     6
  9
$SURFTYPE
 70
     6
  9
$SURFU
 70
     6
  9
$SURFV
 70
     6
  9
$UCSNAME
  2

  9
$UCSORG
 10
0.0
 20
0.0
 30
0.0
  9
$UCSXDIR
 10
1.0
 20
0.0
 30
0.0
  9
$UCSYDIR
 10
0.0
 20
1.0
 30
0.0
  9
$PUCSNAME
  2

  9
$PUCSORG
 10
0.0
 20
0.0
 30
0.0
  9
$PUCSXDIR
 10
1.0
 20
0.0
 30
0.0
  9
$PUCSYDIR
 10
0.0
 20
1.0
 30
0.0
  9
$USERI1
 70
     0
  9
$USERI2
 70
     0
  9
$USERI3
 70
     0
  9
$USERI4
 70
     0
  9
$USERI5
 70
     0
  9
$USERR1
 40
0.0
  9
$USERR2
 40
0.0
  9
$USERR3
 40
0.0
  9
$USERR4
 40
0.0
  9
$USERR5
 40
0.0
  9
$WORLDVIEW
 70
     1
  9
$SHADEDGE
 70
     3
  9
$SHADEDIF
 70
    70
  9
$TILEMODE
 70
     1
  9
$MAXACTVP
 70
    64
  9
$PINSBASE
 10
0.0
 20
0.0
 30
0.0
  9
$PLIMCHECK
 70
     0
  9
$PEXTMIN
 10
1.000000000000000E+20
 20
1.000000000000000E+20
 30
1.000000000000000E+20
  9
$PEXTMAX
 10
-1.000000000000000E+20
 20
-1.000000000000000E+20
 30
-1.000000000000000E+20
  9
$PLIMMIN
 10
0.0
 20
0.0
  9
$PLIMMAX
 10
12.0
 20
9.0
  9
$UNITMODE
 70
     0
  9
$VISRETAIN
 70
     1
  9
$PLINEGEN
 70
     0
  9
$PSLTSCALE
 70
     1
  9
$TREEDEPTH
 70
  3020
  9
$PICKSTYLE
 70
     1
  9
$CMLSTYLE
  2
STANDARD
  9
$CMLJUST
 70
     0
  9
$CMLSCALE
 40
1.0
  9
$SAVEIMAGES
 70
     1
  0
ENDSEC
  0
SECTION
  2
CLASSES
  0
CLASS
  1
ACDBDICTIONARYWDFLT
  2
AcDbDictionaryWithDefault
  3
ObjectDBX Classes
 90
    32768
280
     0
281
     0
  0
CLASS
  1
VISUALSTYLE
  2
AcDbVisualStyle
  3
ObjectDBX Classes
 90
     4095
280
     0
281
     0
  0
CLASS
  1
XRECORD
  2
AcDbXrecord
  3
AutoCAD 2000
 90
    32768
280
     0
281
     0
  0
CLASS
  1
LWPOLYLINE
  2
AcDbPolyline
  3
AutoCAD 2000
 90
    32768
280
     0
281
     1
  0
CLASS
  1
HATCH
  2
AcDbHatch
  3
AutoCAD 2000
 90
    32768
280
     0
281
     1
  0
CLASS
  1
ACDBPLACEHOLDER
  2
AcDbPlaceHolder
  3
ObjectDBX Classes
 90
        0
280
     0
281
     0
  0
CLASS
  1
LAYOUT
  2
AcDbLayout
  3
ObjectDBX Classes
 90
        0
280
     0
281
     0
  0
ENDSEC
  0
SECTION
  2
TABLES
  0
TABLE
  2
VPORT
  5
8
330
0
100
AcDbSymbolTable
 70
     1
  0
VPORT
  5
29
330
8
100
AcDbSymbolTableRecord
100
AcDbViewportTableRecord
  2
*ACTIVE
 70
     0
 10
0.0
 20
0.0
 11
1.0
 21
1.0
 12
0.0
 22
0.0
 13
0.0
 23
0.0
 14
0.5
 24
0.5
 15
0.5
 25
0.5
 16
0.0
 26
0.0
 36
1.0
 17
105.0008952513716
 27
-148.5000775824991
 37
0.0
 40
297.0001551649982
 41
0.7070763662937379
 42
50.0
 43
0.0
 44
0.0
 50
0.0
 51
0.0
 71
     0
 72
   100
 73
     1
 74
     3
 75
     0
 76
     0
 77
     0
 78
     0
  0
ENDTAB
  0
TABLE
  2
LTYPE
  5
5
330
0
100
AcDbSymbolTable
 70
     1
  0
LTYPE
  5
14
330
5
100
AcDbSymbolTableRecord
100
AcDbLinetypeTableRecord
  2
BYBLOCK
 70
     0
  3

 72
    65
 73
     0
 40
0.0
  0
LTYPE
  5
15
330
5
100
AcDbSymbolTableRecord
100
AcDbLinetypeTableRecord
  2
BYLAYER
 70
     0
  3

 72
    65
 73
     0
 40
0.0
  0
LTYPE
  5
16
330
5
100
AcDbSymbolTableRecord
100
AcDbLinetypeTableRecord
  2
CONTINUOUS
 70
     0
  3
Solid line
 72
    65
 73
     0
 40
0.0
  0
ENDTAB
  0
TABLE
  2
LAYER
  5
2
330
0
100
AcDbSymbolTable
 70
     2
  0
LAYER
  5
10
330
2
100
AcDbSymbolTableRecord
100
AcDbLayerTableRecord
  2
0
 70
     0
 62
     7
  6
CONTINUOUS
  0
LAYER
  5
3B
330
2
100
AcDbSymbolTableRecord
100
AcDbLayerTableRecord
  2
LAAG_1
 70
     0
 62
     7
  6
CONTINUOUS
  0
ENDTAB
  0
TABLE
  2
STYLE
  5
3
330
0
100
AcDbSymbolTable
 70
     1
  0
STYLE
  5
11
330
3
100
AcDbSymbolTableRecord
100
AcDbTextStyleTableRecord
  2
STANDARD
 70
     0
 40
0.0
 41
1.0
 50
0.0
 71
     0
 42
0.2
  3
txt
  4

  0
ENDTAB
  0
TABLE
  2
VIEW
  5
6
330
0
100
AcDbSymbolTable
 70
     0
  0
ENDTAB
  0
TABLE
  2
UCS
  5
7
330
0
100
AcDbSymbolTable
 70
     0
  0
ENDTAB
  0
TABLE
  2
APPID
  5
9
330
0
100
AcDbSymbolTable
 70
     1
  0
APPID
  5
12
330
9
100
AcDbSymbolTableRecord
100
AcDbRegAppTableRecord
  2
ACAD
 70
     0
  0
ENDTAB
  0
TABLE
  2
DIMSTYLE
  5
A
330
0
100
AcDbSymbolTable
 70
     1
  0
DIMSTYLE
105
27
330
A
100
AcDbSymbolTableRecord
100
AcDbDimStyleTableRecord
  2
STANDARD
 70
     0
  3

  4

  5

  6

  7

 40
1.0
 41
0.18
 42
0.0625
 43
0.38
 44
0.18
 45
0.0
 46
0.0
 47
0.0
 48
0.0
140
0.18
141
0.09
142
0.0
143
25.4
144
1.0
145
0.0
146
1.0
147
0.09
 71
     0
 72
     0
 73
     1
 74
     1
 75
     0
 76
     0
 77
     0
 78
     0
170
     0
171
     2
172
     0
173
     0
174
     0
175
     0
176
     0
177
     0
178
     0
270
     2
271
     4
272
     4
273
     2
274
     2
340
11
275
     0
280
     0
281
     0
282
     0
283
     1
284
     0
285
     0
286
     0
287
     3
288
     0
  0
ENDTAB
  0
TABLE
  2
BLOCK_RECORD
  5
1
330
0
100
AcDbSymbolTable
 70
     1
  0
BLOCK_RECORD
  5
1F
330
1
100
AcDbSymbolTableRecord
100
AcDbBlockTableRecord
  2
*MODEL_SPACE
  0
BLOCK_RECORD
  5
1B
330
1
100
AcDbSymbolTableRecord
100
AcDbBlockTableRecord
  2
*PAPER_SPACE
  0
ENDTAB
  0
ENDSEC
  0
SECTION
  2
BLOCKS
  0
BLOCK
  5
20
330
1F
100
AcDbEntity
  8
0
100
AcDbBlockBegin
  2
*MODEL_SPACE
 70
     0
 71
     0
 10
0.0
 20
0.0
 30
0.0
  3
*MODEL_SPACE
  1

  0
ENDBLK
  5
21
330
1F
100
AcDbEntity
  8
0
100
AcDbBlockEnd
  0
BLOCK
  5
1C
330
1B
100
AcDbEntity
 67
     1
  8
0
100
AcDbBlockBegin
  2
*PAPER_SPACE
 70
     0
 71
     0
 10
0.0
 20
0.0
 30
0.0
  3
*PAPER_SPACE
  1

  0
ENDBLK
  5
1D
330
1B
100
AcDbEntity
 67
     1
  8
0
100
AcDbBlockEnd
  0
ENDSEC
  0
SECTION
  2
ENTITIES
  0
SPLINE
  5
3C
330
1F
100
AcDbEntity
  8
LAAG_1
 62
   250
100
AcDbSpline
210
0.0
220
0.0
230
1.0
 70
     8
 71
     3
 72
   305
 73
   301
 74
     0
 42
0.0000000001
 43
0.0000000001
 40
0.0
 40
0.0
 40
0.0
 40
0.0
 40
1.0
 40
1.0
 40
1.0
 40
2.0
 40
2.0
 40
2.0
 40
3.0
 40
3.0
 40
3.0
 40
4.0
 40
4.0
 40
4.0
 40
5.0
 40
5.0
 40
5.0
 40
6.0
 40
6.0
 40
6.0
 40
7.0
 40
7.0
 40
7.0
 40
8.0
 40
8.0
 40
8.0
 40
9.0
 40
9.0
 40
9.0
 40
10.0
 40
10.0
 40
10.0
 40
11.0
 40
11.0
 40
11.0
 40
12.0
 40
12.0
 40
12.0
 40
13.0
 40
13.0
 40
13.0
 40
14.0
 40
14.0
 40
14.0
 40
15.0
 40
15.0
 40
15.0
 40
16.0
 40
16.0
 40
16.0
 40
17.0
 40
17.0
 40
17.0
 40
18.0
 40
18.0
 40
18.0
 40
19.0
 40
19.0
 40
19.0
 40
20.0
 40
20.0
 40
20.0
 40
21.0
 40
21.0
 40
21.0
 40
22.0
 40
22.0
 40
22.0
 40
23.0
 40
23.0
 40
23.0
 40
24.0
 40
24.0
 40
24.0
 40
25.0
 40
25.0
 40
25.0
 40
26.0
 40
26.0
 40
26.0
 40
27.0
 40
27.0
 40
27.0
 40
28.0
 40
28.0
 40
28.0
 40
29.0
 40
29.0
 40
29.0
 40
30.0
 40
30.0
 40
30.0
 40
31.0
 40
31.0
 40
31.0
 40
32.0
 40
32.0
 40
32.0
 40
33.0
 40
33.0
 40
33.0
 40
34.0
 40
34.0
 40
34.0
 40
35.0
 40
35.0
 40
35.0
 40
36.0
 40
36.0
 40
36.0
 40
37.0
 40
37.0
 40
37.0
 40
38.0
 40
38.0
 40
38.0
 40
39.0
 40
39.0
 40
39.0
 40
40.0
 40
40.0
 40
40.0
 40
41.0
 40
41.0
 40
41.0
 40
42.0
 40
42.0
 40
42.0
 40
43.0
 40
43.0
 40
43.0
 40
44.0
 40
44.0
 40
44.0
 40
45.0
 40
45.0
 40
45.0
 40
46.0
 40
46.0
 40
46.0
 40
47.0
 40
47.0
 40
47.0
 40
48.0
 40
48.0
 40
48.0
 40
49.0
 40
49.0
 40
49.0
 40
50.0
 40
50.0
 40
50.0
 40
51.0
 40
51.0
 40
51.0
 40
52.0
 40
52.0
 40
52.0
 40
53.0
 40
53.0
 40
53.0
 40
54.0
 40
54.0
 40
54.0
 40
55.0
 40
55.0
 40
55.0
 40
56.0
 40
56.0
 40
56.0
 40
57.0
 40
57.0
 40
57.0
 40
58.0
 40
58.0
 40
58.0
 40
59.0
 40
59.0
 40
59.0
 40
60.0
 40
60.0
 40
60.0
 40
61.0
 40
61.0
 40
61.0
 40
62.0
 40
62.0
 40
62.0
 40
63.0
 40
63.0
 40
63.0
 40
64.0
 40
64.0
 40
64.0
 40
65.0
 40
65.0
 40
65.0
 40
66.0
 40
66.0
 40
66.0
 40
67.0
 40
67.0
 40
67.0
 40
68.0
 40
68.0
 40
68.0
 40
69.0
 40
69.0
 40
69.0
 40
70.0
 40
70.0
 40
70.0
 40
71.0
 40
71.0
 40
71.0
 40
72.0
 40
72.0
 40
72.0
 40
73.0
 40
73.0
 40
73.0
 40
74.0
 40
74.0
 40
74.0
 40
75.0
 40
75.0
 40
75.0
 40
76.0
 40
76.0
 40
76.0
 40
77.0
 40
77.0
 40
77.0
 40
78.0
 40
78.0
 40
78.0
 40
79.0
 40
79.0
 40
79.0
 40
80.0
 40
80.0
 40
80.0
 40
81.0
 40
81.0
 40
81.0
 40
82.0
 40
82.0
 40
82.0
 40
83.0
 40
83.0
 40
83.0
 40
84.0
 40
84.0
 40
84.0
 40
85.0
 40
85.0
 40
85.0
 40
86.0
 40
86.0
 40
86.0
 40
87.0
 40
87.0
 40
87.0
 40
88.0
 40
88.0
 40
88.0
 40
89.0
 40
89.0
 40
89.0
 40
90.0
 40
90.0
 40
90.0
 40
91.0
 40
91.0
 40
91.0
 40
92.0
 40
92.0
 40
92.0
 40
93.0
 40
93.0
 40
93.0
 40
94.0
 40
94.0
 40
94.0
 40
95.0
 40
95.0
 40
95.0
 40
96.0
 40
96.0
 40
96.0
 40
97.0
 40
97.0
 40
97.0
 40
98.0
 40
98.0
 40
98.0
 40
99.0
 40
99.0
 40
99.0
 40
100.0
 40
100.0
 40
100.0
 40
100.0
 10
65.7521022791294
 20
-150.4663671278557
 30
0.0
 10
66.20961126138671
 20
-150.5986588817615
 30
0.0
 10
67.0472867812351
 20
-150.5004735956595
 30
0.0
 10
69.12554200372549
 20
-149.0276943041309
 30
0.0
 10
71.83201080238018
 20
-147.1094638724979
 30
0.0
 10
71.0487678271076
 20
-144.6227923108011
 30
0.0
 10
69.09212455547325
 20
-147.6884125507233
 30
0.0
 10
67.13548128383891
 20
-150.7540327906455
 30
0.0
 10
69.28780610812548
 20
-151.14539589595
 30
0.0
 10
70.55973620036494
 20
-150.5583512379933
 30
0.0
 10
71.8316662926044
 20
-149.9713065800366
 30
0.0
 10
73.05157540869862
 20
-149.0073682273589
 30
0.0
 10
73.53526713391645
 20
-148.60325826035
 30
0.0
 10
75.2385234654527
 20
-147.1811219058634
 30
0.0
 10
74.29043256246165
 20
-145.8361557411552
 30
0.0
 10
72.49346957190883
 20
-148.0079453677743
 30
0.0
 10
70.77712186889232
 20
-150.082238727843
 30
0.0
 10
72.39976291289227
 20
-151.66250506942
 30
0.0
 10
74.05892199312662
 20
-149.8875907045182
 30
0.0
 10
74.78704340427183
 20
-149.108654101443
 30
0.0
 10
76.52371718406032
 20
-147.4606915889221
 30
0.0
 10
76.5063194403826
 20
-147.7764347984392
 30
0.0
 10
76.48892169670489
 20
-148.0921780079564
 30
0.0
 10
76.10289849292529
 20
-148.4656266049195
 30
0.0
 10
75.92754301704504
 20
-149.0442307733692
 30
0.0
 10
75.75218754116479
 20
-149.6226626869309
 30
0.0
 10
75.60301480824505
 20
-150.2131524426455
 30
0.0
 10
76.21417515050746
 20
-149.8214448275653
 30
0.0
 10
76.86081999967686
 20
-149.4069995672825
 30
0.0
 10
77.86265442769212
 20
-148.8867898058303
 30
0.0
 10
78.10484480007683
 20
-148.7796472655577
 30
0.0
 10
78.71307680924497
 20
-148.5107573855488
 30
0.0
 10
78.62384877731375
 20
-148.768967462508
 30
0.0
 10
78.41352555919019
 20
-149.5403248505156
 30
0.0
 10
78.20320234106663
 20
-150.3116822385232
 30
0.0
 10
78.10949568205008
 20
-150.3685263515296
 30
0.0
 10
78.02767461029849
 20
-150.587634568936
 30
0.0
 10
77.88987069998002
 20
-150.9569490485895
 30
0.0
 10
77.91984305047428
 20
-150.9076841506506
 30
0.0
 10
78.36081556349338
 20
-150.7643680839194
 30
0.0
 10
78.80178807651248
 20
-150.6210520171882
 30
0.0
 10
85.99842503800654
 20
-146.1451810100444
 30
0.0
 10
85.23102951242058
 20
-146.9794114321348
 30
0.0
 10
83.46334985281044
 20
-148.9009147066379
 30
0.0
 10
84.0329967670894
 20
-152.0335420979525
 30
0.0
 10
86.3344943242957
 20
-148.3827720038405
 30
0.0
 10
86.49434686026513
 20
-148.1292128088545
 30
0.0
 10
86.36412216501418
 20
-148.0883884004227
 30
0.0
 10
86.32347001147023
 20
-148.244968093522
 30
0.0
 10
85.5354038993365
 20
-151.2811327476137
 30
0.0
 10
88.494053853874
 20
-151.1595207967576
 30
0.0
 10
87.95627409385618
 20
-148.6526954131768
 30
0.0
 10
87.88806115824853
 20
-148.334540635229
 30
0.0
 10
88.4658040522587
 20
-148.6335751206201
 30
0.0
 10
88.93984950375423
 20
-148.6614804124596
 30
0.0
 10
89.87174844728287
 20
-148.7162574668112
 30
0.0
 10
90.73112808300641
 20
-148.1614244728915
 30
0.0
 10
90.57334260569176
 20
-148.7162574668112
 30
0.0
 10
90.41555712837713
 20
-149.2712627156188
 30
0.0
 10
90.12616891670834
 20
-149.3101923202838
 30
0.0
 10
90.12375734827776
 20
-149.7339393445131
 30
0.0
 10
90.1213457798472
 20
-150.1576863687424
 30
0.0
 10
90.24864214200389
 20
-151.2504713775678
 30
0.0
 10
91.79152917290702
 20
-149.6726166044214
 30
0.0
 10
93.33441620381016
 20
-148.0947618312749
 30
0.0
 10
93.48806756381526
 20
-147.3971295352877
 30
0.0
 10
93.88063645333499
 20
-146.7236129236061
 30
0.0
 10
95.31379712064705
 20
-144.2651911635247
 30
0.0
 10
94.49730895201013
 20
-144.1397896051349
 30
0.0
 10
93.73146372041525
 20
-145.6273828170227
 30
0.0
 10
92.96561848882037
 20
-147.1149760289106
 30
0.0
 10
93.21125395896304
 20
-148.4912925832163
 30
0.0
 10
93.38385335663692
 20
-149.4700448562532
 30
0.0
 10
93.50029766085602
 20
-150.1301255866787
 30
0.0
 10
94.10215623917193
 20
-150.5659304530608
 30
0.0
 10
95.34687005912349
 20
-149.1985711529258
 30
0.0
 10
96.59158387907505
 20
-147.8310395979029
 30
0.0
 10
97.14056020680624
 20
-146.7804570366125
 30
0.0
 10
97.4139287139005
 20
-146.3102011926507
 30
0.0
 10
98.22748854944315
 20
-144.9106302284788
 30
0.0
 10
97.94860788593616
 20
-143.0855896911986
 30
0.0
 10
96.67529975459351
 20
-145.8802529924571
 30
0.0
 10
95.1291398808203
 20
-149.2740187938252
 30
0.0
 10
96.94970179101516
 20
-149.791472477071
 30
0.0
 10
97.06115070348523
 20
-149.8049083583271
 30
0.0
 10
97.5572447806317
 20
-149.8655420788672
 30
0.0
 10
97.91398465346863
 20
-149.6316199411016
 30
0.0
 10
98.25728864504953
 20
-149.4576425043246
 30
0.0
 10
99.58571834051955
 20
-148.7851594219704
 30
0.0
 10
99.75952352240871
 20
-148.381910729401
 30
0.0
 10
99.977081445824
 20
-148.0575547754889
 30
0.0
 10
100.2692257356992
 20
-147.6220944188826
 30
0.0
 10
100.0156665407132
 20
-146.5913211697004
 30
0.0
 10
98.71479762730684
 20
-147.9032143959322
 30
0.0
 10
97.36139097309159
 20
-149.2678176178609
 30
0.0
 10
99.09978730175905
 20
-149.7825152229003
 30
0.0
 10
99.33370943952465
 20
-149.8121430636188
 30
0.0
 10
99.66288853029789
 20
-149.8545177660417
 30
0.0
 10
100.2831783816189
 20
-149.8114540440672
 30
0.0
 10
100.7007242298838
 20
-149.2685066374125
 30
0.0
 10
101.0860584141119
 20
-148.7675894234048
 30
0.0
 10
101.3537425099055
 20
-148.2199911347768
 30
0.0
 10
101.7485507129679
 20
-147.2527799392291
 30
0.0
 10
101.8968621714481
 20
-146.8896666355399
 30
0.0
 10
103.0952394265551
 20
-143.6009763157897
 30
0.0
 10
102.7078381836723
 20
-144.1759631315935
 30
0.0
 10
102.4504893811526
 20
-144.5580244729514
 30
0.0
 10
101.7764560048074
 20
-146.3108902122023
 30
0.0
 10
101.6240104290176
 20
-146.7713275275539
 30
0.0
 10
101.5180736729603
 20
-147.0913771092686
 30
0.0
 10
101.1606447805717
 20
-148.5686350278825
 30
0.0
 10
101.4929244593271
 20
-149.1245015511296
 30
0.0
 10
101.8929003090265
 20
-149.7928505161742
 30
0.0
 10
103.567045564508
 20
-148.1383423179131
 30
0.0
 10
103.6846956529424
 20
-148.0189696805998
 30
0.0
 10
103.9348097501704
 20
-147.7654104856138
 30
0.0
 10
104.4579478447169
 20
-147.0054219202074
 30
0.0
 10
103.2072051036889
 20
-147.4842905085641
 30
0.0
 10
101.9835063800609
 20
-147.9528238036469
 30
0.0
 10
102.1164871535182
 20
-149.4572979945488
 30
0.0
 10
102.6835502444787
 20
-149.7056895428978
 30
0.0
 10
103.4387156730239
 20
-150.0364189276621
 30
0.0
 10
104.1992210030939
 20
-149.8121430636188
 30
0.0
 10
105.6249747102264
 20
-148.709884035959
 30
0.0
 10
107.0509006722467
 20
-147.6074527534112
 30
0.0
 10
105.9339999791156
 20
-146.7988883096176
 30
0.0
 10
105.0811660291321
 20
-147.886677926694
 30
0.0
 10
104.2285043340366
 20
-148.9742952888825
 30
0.0
 10
104.745096742843
 20
-150.1373602919704
 30
0.0
 10
105.4065555123716
 20
-150.0639797097258
 30
0.0
 10
106.0680142819003
 20
-149.9905991274812
 30
0.0
 10
107.4346845624837
 20
-148.3292007337042
 30
0.0
 10
107.7767827698493
 20
-147.7488740163755
 30
0.0
 10
108.1009664688735
 20
-147.1990364142049
 30
0.0
 10
107.7550786539741
 20
-147.2381382737577
 30
0.0
 10
107.5614641599767
 20
-147.7781573473182
 30
0.0
 10
107.2255671285754
 20
-148.7162574668112
 30
0.0
 10
107.1101563536837
 20
-149.7563324799398
 30
0.0
 10
107.511854752262
 20
-149.849005609629
 30
0.0
 10
108.3831199752505
 20
-150.0491657893666
 30
0.0
 10
109.2430163756378
 20
-148.4111940603437
 30
0.0
 10
109.4745269449728
 20
-148.1071641832036
 30
0.0
 10
109.9154994579919
 20
-147.528387759866
 30
0.0
 10
110.0202304298339
 20
-147.0763909340214
 30
0.0
 10
109.4304296936709
 20
-147.9362873344087
 30
0.0
 10
109.3005495081957
 20
-148.1255954562087
 30
0.0
 10
108.8881713065677
 20
-148.9453564677156
 30
0.0
 10
109.1234714834365
 20
-149.3711705505997
 30
0.0
 10
109.3587716603053
 20
-149.7976736530354
 30
0.0
 10
110.0867208165626
 20
-150.3626696853411
 30
0.0
 10
110.7864201712046
 20
-148.9560362707653
 30
0.0
 10
110.9190564348861
 20
-148.6893857042991
 30
0.0
 10
111.1667589636836
 20
-148.035506149838
 30
0.0
 10
111.1519450433243
 20
-147.4605193340342
 30
0.0
 10
111.1367866131893
 20
-146.8702018332074
 30
0.0
 10
110.1290955189855
 20
-147.2219463142953
 30
0.0
 10
110.7402558612479
 20
-147.7102889214864
 30
0.0
 10
111.1019911258339
 20
-147.9993326233794
 30
0.0
 10
111.5539879516785
 20
-147.8505044002354
 30
0.0
 10
111.7124624485447
 20
-147.7158010778991
 30
0.0
 10
112.2250929949294
 20
-147.2803407212928
 30
0.0
 10
111.6514842182288
 20
-148.2983671087704
 30
0.0
 10
111.6222008872861
 20
-149.0480203809029
 30
0.0
 10
111.5929175563434
 20
-149.7976736530354
 30
0.0
 10
112.2543763258721
 20
-150.6210520171882
 30
0.0
 10
112.9451184263434
 20
-149.4007983913182
 30
0.0
 10
113.6358605268147
 20
-148.180717020336
 30
0.0
 10
114.0179218681726
 20
-147.7984834240902
 30
0.0
 10
113.6358605268147
 20
-147.8279390099208
 30
0.0
 10
113.2537991854568
 20
-147.8573945957513
 30
0.0
 10
113.1211629217752
 20
-148.6952423704876
 30
0.0
 10
113.3712770190032
 20
-149.4448956426201
 30
0.0
 10
113.5669585716555
 20
-150.0312512810252
 30
0.0
 10
114.149180092751
 20
-149.7811371837971
 30
0.0
 10
114.7665416109777
 20
-149.2784974209105
 30
0.0
 10
114.9384519891
 20
-149.1386264519373
 30
0.0
 10
115.1127739356529
 20
-148.9791184257436
 30
0.0
 10
115.2822727453446
 20
-148.8127202040341
 30
0.0
 10
116.0612093484197
 20
-148.0484252664303
 30
0.0
 10
116.5755624436834
 20
-147.9896863496571
 30
0.0
 10
115.9730148458159
 20
-147.8573945957513
 30
0.0
 10
115.3704672479484
 20
-147.7251028418456
 30
0.0
 10
113.7047624819739
 20
-148.8592290237666
 30
0.0
 10
114.9735919862312
 20
-149.3859844709589
 30
0.0
 10
115.4280003805064
 20
-149.5744313183195
 30
0.0
 10
116.1966016903076
 20
-149.2740187938252
 30
0.0
 10
116.4639412763255
 20
-148.8978141186558
 30
0.0
 10
117.1198878894414
 20
-147.9748724292978
 30
0.0
 10
116.0319260174771
 20
-148.7162574668112
 30
0.0
 10
115.2970866657038
 20
-150.2386461660545
 30
0.0
 10
114.1391893092529
 20
-152.6371232251474
 30
0.0
 10
114.4309890893523
 20
-154.8319950067448
 30
0.0
 10
114.2094693035153
 20
-155.7800859097358
 30
0.0
 10
113.8422218825166
 20
-157.3527730362453
 30
0.0
 10
110.6372474382848
 20
-157.7475812393077
 30
0.0
 10
111.9897928180606
 20
-154.5453628732824
 30
0.0
 10
112.7101627592504
 20
-152.8403839928671
 30
0.0
 10
114.7761878847
 20
-151.4864605739882
 30
0.0
 10
115.781811920249
 20
-150.9479917944188
 30
0.0
 10
117.9460223318006
 20
-149.7890609086405
 30
0.0
 10
117.67317058937
 20
-149.8514171780596
 30
0.0
 10
118.7366722672528
 20
-148.8861007862787
 30
0.0
 10
119.5300782809114
 20
-148.1660753548647
 30
0.0
 10
119.4122559375891
 20
-147.592638833052
 30
0.0
 10
118.3690803364783
 20
-147.9895140947692
 30
0.0
 10
117.3255602255917
 20
-148.3863893564863
 30
0.0
 10
117.1047294593063
 20
-151.282166276941
 30
0.0
 10
118.9716279343458
 20
-150.356123999601
 30
0.0
 10
120.8385264093852
 20
-149.4300817222608
 30
0.0
 10
125.0277652830666
 20
-142.4482466059757
 30
0.0
 10
125.4391099553672
 20
-141.8601684186916
 30
0.0
 10
125.8504546276679
 20
-141.2720902314076
 30
0.0
 10
126.7475580838411
 20
-139.5671113509923
 30
0.0
 10
125.6595962118768
 20
-141.0664178952572
 30
0.0
 10
124.5716343399125
 20
-142.5657244395222
 30
0.0
 10
121.8376047591941
 20
-147.8277667550329
 30
0.0
 10
121.8527631893291
 20
-149.87105423528
 30
0.0
 10
121.8672325999126
 20
-151.914341715527
 30
0.0
 10
123.5133003086667
 20
-150.9001049355831
 30
0.0
 10
123.5284587388017
 20
-149.7828597326761
 30
0.0
 10
123.5429281493851
 20
-148.6657867846571
 30
0.0
 10
122.2055411997444
 20
-146.2845352143539
 30
0.0
 10
121.161676579082
 20
-147.4310637482036
 30
0.0
 10
120.1178119584196
 20
-148.5775922820532
 30
0.0
 10
122.9696638824603
 20
-149.5182762248647
 30
0.0
 10
124.11619241631
 20
-149.341887219657
 30
0.0
 10
125.2627209501596
 20
-149.1654982144494
 30
0.0
 10
126.7268874972933
 20
-148.1218058486749
 30
0.0
 10
126.1784279342258
 20
-147.6220944188826
 30
0.0
 10
125.6299683711583
 20
-147.1223829890902
 30
0.0
 10
123.8075116571966
 20
-149.0332064605437
 30
0.0
 10
125.0567041042335
 20
-150.1649210740341
 30
0.0
 10
126.306585570822
 20
-151.2969801973003
 30
0.0
 10
129.7013849015175
 20
-148.1951864309195
 30
0.0
 10
130.6425856089926
 20
-146.9311800635233
 30
0.0
 10
131.5830972969161
 20
-145.6671736961272
 30
0.0
 10
132.5828646662766
 20
-143.6974390530126
 30
0.0
 10
131.8628392348626
 20
-144.5793840790508
 30
0.0
 10
131.4046412330537
 20
-145.1405905038228
 30
0.0
 10
130.4765318970588
 20
-147.2605314091845
 30
0.0
 10
129.8047378342563
 20
-148.7817143242125
 30
0.0
 10
129.4209539440194
 20
-149.6516015080978
 30
0.0
 10
129.1205414195251
 20
-150.3254626295551
 30
0.0
 10
129.0406151515404
 20
-150.4002212509029
 30
0.0
 10
128.8201288950308
 20
-150.6058935870532
 30
0.0
 10
128.5996426385213
 20
-150.7529992613181
 30
0.0
 10
128.9813594701035
 20
-150.0915404917895
 30
0.0
 10
129.3637653212372
 20
-149.4300817222608
 30
0.0
 10
131.0690887114282
 20
-147.9600585089386
 30
0.0
 10
131.8187419835607
 20
-148.077708597373
 30
0.0
 10
132.5683952556932
 20
-148.1953586858074
 30
0.0
 10
132.2300866558613
 20
-149.0328619507679
 30
0.0
 10
131.2454777166359
 20
-149.3567011400163
 30
0.0
 10
130.2601797578588
 20
-149.6798513097131
 30
0.0
 10
129.9873280154283
 20
-149.1389709617131
 30
0.0
 10
129.9225601775786
 20
-148.9009147066379
 30
0.0
 10
129.8571033201773
 20
-148.6630307064507
 30
0.0
 10
128.8786955569162
 20
-147.6808333356558
 30
0.0
 10
130.4365687630665
 20
-149.8417709043373
 30
0.0
 10
131.9951309887683
 20
-152.0025362181308
 30
0.0
 10
134.6264966562995
 20
-150.1759453868596
 30
0.0
 10
135.0674691693186
 20
-149.9003375662226
 30
0.0
 10
135.8901585139198
 20
-149.3859844709589
 30
0.0
 10
136.1285592787708
 20
-149.0438862635934
 30
0.0
 10
136.2732533846052
 20
-148.674399529052
 30
0.0
 10
136.5695317917899
 20
-147.9199231200583
 30
0.0
 10
135.6862087266485
 20
-147.0913771092686
 30
0.0
 10
135.9494141953568
 20
-148.1219781035628
 30
0.0
 10
136.302192205772
 20
-149.5034623045054
 30
0.0
 10
136.302192205772
 20
-148.7834368730914
 30
0.0
 10
136.5812451241669
 20
-149.9151514865819
 30
0.0
 10
136.7831278527835
 20
-150.7326731845462
 30
0.0
 10
135.6400444166918
 20
-151.5467497847525
 30
0.0
 10
135.6993000981287
 20
-150.8704770948646
 30
0.0
 10
135.7578667600141
 20
-150.1945489147525
 30
0.0
 10
138.462268500014
 20
-147.6369083392418
 30
0.0
 10
138.9183994431681
 20
-147.2841303288265
 30
0.0
 10
139.3738413667707
 20
-146.9313523184112
 30
0.0
 10
140.4611142191834
 20
-145.6673459510151
 30
0.0
 10
141.0199090755248
 20
-145.1674622663349
 30
0.0
 10
141.5787039318662
 20
-144.6675785816546
 30
0.0
 10
142.2691015225617
 20
-143.4474972106725
 30
0.0
 10
141.5049788398458
 20
-145.1085510946737
 30
0.0
 10
140.7408561571299
 20
-146.7696049786749
 30
0.0
 10
140.0001601391681
 20
-148.3136977937934
 30
0.0
 10
139.9264350471477
 20
-149.3573901595679
 30
0.0
 10
139.853398974679
 20
-150.4012547802303
 30
0.0
 10
140.3439808954127
 20
-151.6790415386582
 30
0.0
 10
140.3295114848293
 20
-150.4150351712621
 30
0.0
 10
140.3143530546942
 20
-149.151028803866
 30
0.0
 10
140.495565196763
 20
-148.3848390624953
 30
0.0
 10
139.5529864501847
 20
-148.5905113986456
 30
0.0
 10
139.256708043
 20
-148.6551069816074
 30
0.0
 10
138.4477990894306
 20
-149.6064707274685
 30
0.0
 10
139.4034692074891
 20
-149.1065870427882
 30
0.0
 10
140.3584503059961
 20
-148.6070478678838
 30
0.0
 10
142.420685823912
 20
-148.0925225177322
 30
0.0
 10
143.137266157568
 20
-148.3130087742418
 30
0.0
 10
143.9013888402839
 20
-148.5481366962227
 30
0.0
 10
143.9013888402839
 20
-148.9598258782991
 30
0.0
 10
143.9013888402839
 20
-148.9598258782991
 30
0.0
  0
ENDSEC
  0
SECTION
  2
OBJECTS
  0
DICTIONARY
  5
C
330
0
100
AcDbDictionary
  3
ACAD_GROUP
350
D
  3
ACAD_LAYOUT
350
1A
  3
ACAD_MLINESTYLE
350
17
  3
ACAD_PLOTSETTINGS
350
19
  3
ACAD_TABLESTYLE
350
3D
  3
ACAD_VISUALSTYLE
350
2A
1001
ACAD
1000
TREAT_AS_HARD
1070
     0
  0
DICTIONARY
  5
D
102
{ACAD_REACTORS
330
C
102
}
330
C
100
AcDbDictionary
1001
ACAD
1000
TREAT_AS_HARD
1070
     0
  0
DICTIONARY
  5
1A
102
{ACAD_REACTORS
330
C
102
}
330
C
100
AcDbDictionary
1001
ACAD
1000
TREAT_AS_HARD
1070
     0
  0
DICTIONARY
  5
17
102
{ACAD_REACTORS
330
C
102
}
330
C
100
AcDbDictionary
  3
STANDARD
350
18
1001
ACAD
1000
TREAT_AS_HARD
1070
     0
  0
DICTIONARY
  5
19
102
{ACAD_REACTORS
330
C
102
}
330
C
100
AcDbDictionary
1001
ACAD
1000
TREAT_AS_HARD
1070
     0
  0
DICTIONARY
  5
3D
102
{ACAD_REACTORS
330
C
102
}
330
C
100
AcDbDictionary
1001
ACAD
1000
TREAT_AS_HARD
1070
     0
  0
DICTIONARY
  5
2A
102
{ACAD_REACTORS
330
C
102
}
330
C
100
AcDbDictionary
  3
2DWIREFRAME
350
2F
  3
3D_HIDDEN
350
31
  3
3DWIREFRAME
350
30
  3
BASIC
350
32
  3
BRIGHTEN
350
36
  3
COLORCHANGE
350
3A
  3
CONCEPTUAL
350
34
  3
DIM
350
35
  3
FACEPATTERN
350
39
  3
FLAT
350
2B
  3
FLATWITHEDGES
350
2C
  3
GOURAUD
350
2D
  3
GOURAUDWITHEDGES
350
2E
  3
LINEPATTERN
350
38
  3
REALISTIC
350
33
  3
THICKEN
350
37
1001
ACAD
1000
TREAT_AS_HARD
1070
     0
  0
MLINESTYLE
  5
18
102
{ACAD_REACTORS
330
17
102
}
330
17
100
AcDbMlineStyle
  2
Standard
 70
     0
  3

 62
   256
 51
90.0
 52
90.0
 71
     2
 49
0.5
 62
   256
  6
BYLAYER
 49
-0.5
 62
   256
  6
BYLAYER
  0
VISUALSTYLE
  5
2F
102
{ACAD_REACTORS
330
2A
102
}
330
2A
100
AcDbVisualStyle
  2
2dWireframe
 70
     4
 71
     0
 72
     2
 73
     0
 90
        0
 40
-0.6
 41
-30.0
 62
     5
 63
     7
 74
     1
 91
        4
 64
     7
 65
   257
 75
     1
175
     1
 42
1.0
 92
        0
 66
   257
 43
1.0
 76
     1
 77
     6
 78
     2
 67
     7
 79
     5
170
     0
171
     0
290
     0
174
     0
 93
        1
 44
0.0
173
     0
291
     0
 45
0.0
1001
ACAD
1000
AcDbSavedByObjectVersion
1070
     0
  0
VISUALSTYLE
  5
31
102
{ACAD_REACTORS
330
2A
102
}
330
2A
100
AcDbVisualStyle
  2
3D Hidden
 70
     6
 71
     1
 72
     2
 73
     2
 90
        0
 40
-0.6
 41
-30.0
 62
     5
 63
     7
 74
     2
 91
        2
 64
     7
 65
   257
 75
     2
175
     1
 42
40.0
 92
        0
 66
   257
 43
1.0
 76
     1
 77
     6
 78
     2
 67
     7
 79
     3
170
     0
171
     0
290
     0
174
     0
 93
        1
 44
0.0
173
     0
291
     0
 45
0.0
1001
ACAD
1000
AcDbSavedByObjectVersion
1070
     0
  0
VISUALSTYLE
  5
30
102
{ACAD_REACTORS
330
2A
102
}
330
2A
100
AcDbVisualStyle
  2
3dWireframe
 70
     5
 71
     0
 72
     2
 73
     0
 90
        0
 40
-0.6
 41
-30.0
 62
     5
 63
     7
 74
     1
 91
        4
 64
     7
 65
   257
 75
     1
175
     1
 42
1.0
 92
        0
 66
   257
 43
1.0
 76
     1
 77
     6
 78
     2
 67
     7
 79
     5
170
     0
171
     0
290
     0
174
     0
 93
        1
 44
0.0
173
     0
291
     0
 45
0.0
1001
ACAD
1000
AcDbSavedByObjectVersion
1070
     0
  0
VISUALSTYLE
  5
32
102
{ACAD_REACTORS
330
2A
102
}
330
2A
100
AcDbVisualStyle
  2
Basic
 70
     7
 71
     1
 72
     0
 73
     1
 90
        0
 40
-0.6
 41
-30.0
 62
     5
 63
     7
 74
     0
 91
        4
 64
     7
 65
   257
 75
     1
175
     1
 42
1.0
 92
        8
 66
     7
 43
1.0
 76
     1
 77
     6
 78
     2
 67
     7
 79
     5
170
     0
171
     0
290
     0
174
     0
 93
        1
 44
0.0
173
     0
291
     1
 45
0.0
1001
ACAD
1000
AcDbSavedByObjectVersion
1070
     0
  0
VISUALSTYLE
  5
36
102
{ACAD_REACTORS
330
2A
102
}
330
2A
100
AcDbVisualStyle
  2
Brighten
 70
    12
 71
     2
 72
     2
 73
     0
 90
        0
 40
-0.6
 41
-30.0
 62
     5
 63
     7
 74
     1
 91
        4
 64
     7
 65
   257
 75
     1
175
     1
 42
1.0
 92
        8
 66
     7
 43
1.0
 76
     1
 77
     6
 78
     2
 67
     7
 79
     5
170
     0
171
     0
290
     0
174
     0
 93
        1
 44
50.0
173
     0
291
     1
 45
0.0
1001
ACAD
1000
AcDbSavedByObjectVersion
1070
     0
  0
VISUALSTYLE
  5
3A
102
{ACAD_REACTORS
330
2A
102
}
330
2A
100
AcDbVisualStyle
  2
ColorChange
 70
    16
 71
     2
 72
     2
 73
     3
 90
        0
 40
-0.6
 41
-30.0
 62
     5
 63
     8
 74
     1
 91
        4
 64
     7
 65
   257
 75
     1
175
     1
 42
1.0
 92
        8
 66
     8
 43
1.0
 76
     1
 77
     6
 78
     2
 67
     7
 79
     5
170
     0
171
     0
290
     0
174
     0
 93
        1
 44
0.0
173
     0
291
     1
 45
0.0
1001
ACAD
1000
AcDbSavedByObjectVersion
1070
     0
  0
VISUALSTYLE
  5
34
102
{ACAD_REACTORS
330
2A
102
}
330
2A
100
AcDbVisualStyle
  2
Conceptual
 70
     9
 71
     3
 72
     2
 73
     0
 90
        0
 40
-0.6
 41
-30.0
 62
     5
 63
     7
 74
     2
 91
        2
 64
     7
 65
   257
 75
     1
175
     1
 42
40.0
 92
        8
 66
     7
 43
1.0
 76
     1
 77
     6
 78
     2
 67
     7
 79
     3
170
     0
171
     0
290
     0
174
     0
 93
        1
 44
0.0
173
     0
291
     0
 45
0.0
1001
ACAD
1000
AcDbSavedByObjectVersion
1070
     0
  0
VISUALSTYLE
  5
35
102
{ACAD_REACTORS
330
2A
102
}
330
2A
100
AcDbVisualStyle
  2
Dim
 70
    11
 71
     2
 72
     2
 73
     0
 90
        0
 40
-0.6
 41
-30.0
 62
     5
 63
     7
 74
     1
 91
        4
 64
     7
 65
   257
 75
     1
175
     1
 42
1.0
 92
        8
 66
     7
 43
1.0
 76
     1
 77
     6
 78
     2
 67
     7
 79
     5
170
     0
171
     0
290
     0
174
     0
 93
        1
 44
-50.0
173
     0
291
     1
 45
0.0
1001
ACAD
1000
AcDbSavedByObjectVersion
1070
     0
  0
VISUALSTYLE
  5
39
102
{ACAD_REACTORS
330
2A
102
}
330
2A
100
AcDbVisualStyle
  2
Facepattern
 70
    15
 71
     2
 72
     2
 73
     0
 90
        0
 40
-0.6
 41
-30.0
 62
     5
 63
     7
 74
     1
 91
        4
 64
     7
 65
   257
 75
     1
175
     1
 42
1.0
 92
        8
 66
     7
 43
1.0
 76
     1
 77
     6
 78
     2
 67
     7
 79
     5
170
     0
171
     0
290
     0
174
     0
 93
        1
 44
0.0
173
     0
291
     1
 45
0.0
1001
ACAD
1000
AcDbSavedByObjectVersion
1070
     0
  0
VISUALSTYLE
  5
2B
102
{ACAD_REACTORS
330
2A
102
}
330
2A
100
AcDbVisualStyle
  2
Flat
 70
     0
 71
     2
 72
     1
 73
     1
 90
        2
 40
-0.6
 41
30.0
 62
     5
 63
     7
 74
     0
 91
        4
 64
     7
 65
   257
 75
     1
175
     1
 42
1.0
 92
        8
 66
     7
 43
1.0
 76
     1
 77
     6
 78
     2
 67
     7
 79
     5
170
     0
171
     0
290
     0
174
     0
 93
       13
 44
0.0
173
     0
291
     1
 45
0.0
1001
ACAD
1000
AcDbSavedByObjectVersion
1070
     0
  0
VISUALSTYLE
  5
2C
102
{ACAD_REACTORS
330
2A
102
}
330
2A
100
AcDbVisualStyle
  2
FlatWithEdges
 70
     1
 71
     2
 72
     1
 73
     1
 90
        2
 40
-0.6
 41
30.0
 62
     5
 63
     7
 74
     1
 91
        4
 64
     7
 65
   257
 75
     1
175
     1
 42
1.0
 92
        0
 66
   257
 43
1.0
 76
     1
 77
     6
 78
     2
 67
     7
 79
     5
170
     0
171
     0
290
     0
174
     0
 93
       13
 44
0.0
173
     0
291
     1
 45
0.0
1001
ACAD
1000
AcDbSavedByObjectVersion
1070
     0
  0
VISUALSTYLE
  5
2D
102
{ACAD_REACTORS
330
2A
102
}
330
2A
100
AcDbVisualStyle
  2
Gouraud
 70
     2
 71
     2
 72
     2
 73
     1
 90
        2
 40
-0.6
 41
30.0
 62
     5
 63
     7
 74
     0
 91
        4
 64
     7
 65
   257
 75
     1
175
     1
 42
1.0
 92
        0
 66
     7
 43
1.0
 76
     1
 77
     6
 78
     2
 67
     7
 79
     5
170
     0
171
     0
290
     0
174
     0
 93
       13
 44
0.0
173
     0
291
     1
 45
0.0
1001
ACAD
1000
AcDbSavedByObjectVersion
1070
     0
  0
VISUALSTYLE
  5
2E
102
{ACAD_REACTORS
330
2A
102
}
330
2A
100
AcDbVisualStyle
  2
GouraudWithEdges
 70
     3
 71
     2
 72
     2
 73
     1
 90
        2
 40
-0.6
 41
30.0
 62
     5
 63
     7
 74
     1
 91
        4
 64
     7
 65
   257
 75
     1
175
     1
 42
1.0
 92
        0
 66
   257
 43
1.0
 76
     1
 77
     6
 78
     2
 67
     7
 79
     5
170
     0
171
     0
290
     0
174
     0
 93
       13
 44
0.0
173
     0
291
     1
 45
0.0
1001
ACAD
1000
AcDbSavedByObjectVersion
1070
     0
  0
VISUALSTYLE
  5
38
102
{ACAD_REACTORS
330
2A
102
}
330
2A
100
AcDbVisualStyle
  2
Linepattern
 70
    14
 71
     2
 72
     2
 73
     0
 90
        0
 40
-0.6
 41
-30.0
 62
     5
 63
     7
 74
     1
 91
        4
 64
     7
 65
   257
 75
     7
175
     7
 42
1.0
 92
        8
 66
     7
 43
1.0
 76
     1
 77
     6
 78
     2
 67
     7
 79
     5
170
     0
171
     0
290
     0
174
     0
 93
        1
 44
0.0
173
     0
291
     1
 45
0.0
1001
ACAD
1000
AcDbSavedByObjectVersion
1070
     0
  0
VISUALSTYLE
  5
33
102
{ACAD_REACTORS
330
2A
102
}
330
2A
100
AcDbVisualStyle
  2
Realistic
 70
     8
 71
     2
 72
     2
 73
     0
 90
        0
 40
-0.6
 41
-30.0
 62
     5
 63
     7
 74
     1
 91
        0
 64
     7
 65
   257
 75
     1
175
     1
 42
1.0
 92
        8
 66
     8
 43
1.0
 76
     1
 77
     6
 78
     2
 67
     7
 79
     5
170
     0
171
     0
290
     0
174
     0
 93
       13
 44
0.0
173
     0
291
     0
 45
0.0
1001
ACAD
1000
AcDbSavedByObjectVersion
1070
     0
  0
VISUALSTYLE
  5
37
102
{ACAD_REACTORS
330
2A
102
}
330
2A
100
AcDbVisualStyle
  2
Thicken
 70
    13
 71
     2
 72
     2
 73
     0
 90
        0
 40
-0.6
 41
-30.0
 62
     5
 63
     7
 74
     1
 91
        4
 64
     7
 65
   257
 75
     1
175
     1
 42
1.0
 92
       12
 66
     7
 43
1.0
 76
     1
 77
     6
 78
     2
 67
     7
 79
     5
170
     0
171
     0
290
     0
174
     0
 93
        1
 44
0.0
173
     0
291
     1
 45
0.0
1001
ACAD
1000
AcDbSavedByObjectVersion
1070
     0
  0
ENDSEC
  0
EOF
